<?xml version="1.0" encoding="iso-8859-1"?>
<!-- Generator: Adobe Illustrator 16.0.0, SVG Export Plug-In . SVG Version: 6.00 Build 0)  -->
<!DOCTYPE svg PUBLIC "-//W3C//DTD SVG 1.1//EN" "http://www.w3.org/Graphics/SVG/1.1/DTD/svg11.dtd">
<svg version="1.1" id="Capa_1" xmlns="http://www.w3.org/2000/svg" xmlns:xlink="http://www.w3.org/1999/xlink" x="0px" y="0px"
	 width="554.473px" height="554.473px" viewBox="0 0 554.473 554.473" style="enable-background:new 0 0 554.473 554.473;"
	 xml:space="preserve">
<g>
	<g>
		<path d="M212.375,495.329c5.389,5.389,9.758,3.58,9.758-4.043v-61.763c0-7.622,9.241-4.584,16.854-4.96
			c172.725-8.547,308.445-181.037,315.465-355.261c0.307-7.616-3.115-8.629-7.693-2.537
			c-96.43,128.288-264.236,80.203-311.755,63.177c-7.176-2.57-12.87-1.974-12.87-9.596V63.186c0-7.623-4.37-9.431-9.759-4.042
			L4.042,267.478c-5.389,5.389-5.389,14.129,0,19.518L212.375,495.329z"/>
	</g>
</g>
<g>
</g>
<g>
</g>
<g>
</g>
<g>
</g>
<g>
</g>
<g>
</g>
<g>
</g>
<g>
</g>
<g>
</g>
<g>
</g>
<g>
</g>
<g>
</g>
<g>
</g>
<g>
</g>
<g>
</g>
</svg>
