<svg height="512pt" viewBox="-16 0 512 512" width="512pt" xmlns="http://www.w3.org/2000/svg" style="fill: #FFFFFF"><path d="m279.894531 137.90625v-98.011719c0-21.996093-17.898437-39.894531-39.894531-39.894531-22 0-39.894531 17.898438-39.894531 39.894531v98.011719c-23.558594 2.933594-41.84375 23.085938-41.84375 47.433594h163.476562c0-24.347656-18.285156-44.5-41.84375-47.433594zm0 0"/><path d="m479.617188 390.570312c-1.527344-9.484374-7.566407-17.722656-16.117188-22.015624-1.035156-.523438-103.496094-53.398438-103.496094-123.21875-.003906-16.535157-13.460937-29.992188-30-29.996094l-179.992187.003906h-.023438c-8.007812 0-15.535156 3.117188-21.199219 8.785156-5.675781 5.675782-8.796874 13.21875-8.785156 21.210938 0 19.503906-8.644531 50.292968-49.816406 86.210937-26.460938 23.085938-53.398438 36.855469-53.644531 36.980469-8.589844 4.3125-14.632813 12.546875-16.164063 22.03125-1.527344 9.488281 1.613282 19.207031 8.40625 26 20.699219 20.699219 43.679688 38.28125 68.382813 52.511719l51.003906-69.980469c4.878906-6.691406 14.261719-8.164062 20.957031-3.285156 6.691406 4.878906 8.164063 14.261718 3.285156 20.957031l-48.257812 66.210937c37.65625 17.210938 78.523438 27.128907 120.84375 29.023438v-94.21875c0-8.285156 6.714844-15 15-15s15 6.714844 15 15v94.21875c42.316406-1.898438 83.179688-11.8125 120.832031-29.019531l-48.257812-66.214844c-4.878907-6.695313-3.40625-16.078125 3.285156-20.957031 6.695313-4.878906 16.082031-3.40625 20.957031 3.289062l51.007813 69.980469c24.707031-14.230469 47.695312-31.816406 68.398437-52.519531 6.785156-6.789063 9.925782-16.507813 8.394532-25.988282zm0 0"/></svg>