<?xml version="1.0" encoding="iso-8859-1"?>
<!-- Generator: Adobe Illustrator 19.0.0, SVG Export Plug-In . SVG Version: 6.00 Build 0)  -->
<svg version="1.1" id="Capa_1" xmlns="http://www.w3.org/2000/svg" xmlns:xlink="http://www.w3.org/1999/xlink" x="0px" y="0px"
	 viewBox="0 0 512 512" style="enable-background:new 0 0 512 512; fill: #FFFFFF;" xml:space="preserve">
<g transform="translate(1 1)">
	<g>
		<path d="M504.508,474.582l-163.48-163.48c26.405-32.888,42.214-74.647,42.214-120.102c0-106.033-85.967-192-192-192
			s-192,85.967-192,192s85.967,192,192,192c45.207,0,86.759-15.635,119.563-41.78l163.532,163.532c8.331,8.331,21.839,8.331,30.17,0
			C512.84,496.42,512.84,482.913,504.508,474.582z M41.91,191c0-82.469,66.865-149.333,149.333-149.333S340.577,108.531,340.577,191
			c0,41.354-16.816,78.783-43.98,105.826c-0.002,0.002-0.005,0.004-0.007,0.007c-0.001,0.001-0.003,0.003-0.004,0.005
			c-27.005,26.879-64.234,43.496-105.342,43.496C108.775,340.333,41.91,273.469,41.91,191z"/>
	</g>
</g>
<g>
</g>
<g>
</g>
<g>
</g>
<g>
</g>
<g>
</g>
<g>
</g>
<g>
</g>
<g>
</g>
<g>
</g>
<g>
</g>
<g>
</g>
<g>
</g>
<g>
</g>
<g>
</g>
<g>
</g>
</svg>
