<?xml version="1.0" encoding="windows-1252"?>
<!-- Generator: Adobe Illustrator 19.0.0, SVG Export Plug-In . SVG Version: 6.00 Build 0)  -->
<svg version="1.1" id="Layer_1" xmlns="http://www.w3.org/2000/svg" xmlns:xlink="http://www.w3.org/1999/xlink" x="0px" y="0px" viewBox="0 0 330 330" style="enable-background:new 0 0 330 330; fill: #FFFFFF;" xml:space="preserve">
<path id="XMLID_87_" d="M315,120H210V15c0-8.284-6.716-15-15-15h-60c-8.284,0-15,6.716-15,15v105H15c-8.284,0-15,6.716-15,15v60  c0,8.284,6.716,15,15,15h105v105c0,8.284,6.716,15,15,15h60c8.284,0,15-6.716,15-15V210h105c8.284,0,15-6.716,15-15v-60  C330,126.716,323.284,120,315,120z"/>
<g>
</g>
<g>
</g>
<g>
</g>
<g>
</g>
<g>
</g>
<g>
</g>
<g>
</g>
<g>
</g>
<g>
</g>
<g>
</g>
<g>
</g>
<g>
</g>
<g>
</g>
<g>
</g>
<g>
</g>
</svg>